<svg width="50" height="50" viewBox="0 0 50 50" fill="none" xmlns="http://www.w3.org/2000/svg">
<rect width="50" height="50" fill="#A223D9"/>
<path d="M8.3335 35.072V28.4771H12.6613H16.4917V25.1844V21.8917H12.2783H8.3335V15.1125V8.33331H14.768H21.8802V12.5945V16.8557H24.727H27.9828V12.5945V8.33331H34.686H41.6668V15.1125V21.8917H37.1757H32.9623V25.1844V28.4771H37.1757H41.6668V35.0626V41.6666H34.686H27.9828V37.3869V33.1257H24.9315H21.8802V37.2901V41.6666H15.247H8.3335V35.072ZM19.3643 34.7721V30.8014H21.8802H23.3865V28.6708V26.5402H21.8802H19.3643V28.6708V30.8014H15.5342H10.9934V34.8825V38.9635H15.4384H19.3643V34.7721ZM38.7895 34.7721V30.8014H34.5079H30.2811V34.882V38.9635H34.3987H38.7895V34.7721ZM30.2811 28.4771V26.5402H27.9828H26.4507V28.4771V30.414H27.9828H30.2811V28.4771ZM23.387 21.8917L23.3876 19.7611H21.8802H19.3643V15.4999V11.2387H15.1509H10.9934V15.403V19.5674H15.1381H19.3643V21.8917V23.8286H21.8802H23.3864L23.387 21.8917ZM30.2811 21.8917V19.7611H27.9828H26.4507V21.8917V23.8286H27.9828H30.2811V21.8917ZM38.7895 15.3062V11.045H34.4945H30.2811V15.3062V19.5674H34.4945H38.7895V15.3062Z" fill="#F2F2F2"/>
</svg>
